<?xml version="1.0" encoding="UTF-8" standalone="no"?>
<!DOCTYPE svg PUBLIC "-//W3C//DTD SVG 1.1//EN"
 "http://www.w3.org/Graphics/SVG/1.1/DTD/svg11.dtd">
<!-- Generated by graphviz version 2.40.1 (20161225.0304)
 -->
<!-- Title: G Pages: 1 -->
<svg width="454pt" height="2711pt"
 viewBox="0.00 0.00 454.00 2711.00" xmlns="http://www.w3.org/2000/svg" xmlns:xlink="http://www.w3.org/1999/xlink">
<g id="graph0" class="graph" transform="scale(1 1) rotate(0) translate(4 2707)">
<title>G</title>
<polygon fill="#ffffff" stroke="transparent" points="-4,4 -4,-2707 450,-2707 450,4 -4,4"/>
<!-- 139815833200792 -->
<g id="node1" class="node">
<title>139815833200792</title>
<polygon fill="none" stroke="#000000" points="70.5,-2656.5 70.5,-2702.5 375.5,-2702.5 375.5,-2656.5 70.5,-2656.5"/>
<text text-anchor="middle" x="133" y="-2675.8" font-family="Times,serif" font-size="14.00" fill="#000000">input_1: InputLayer</text>
<polyline fill="none" stroke="#000000" points="195.5,-2656.5 195.5,-2702.5 "/>
<text text-anchor="middle" x="223" y="-2687.3" font-family="Times,serif" font-size="14.00" fill="#000000">input:</text>
<polyline fill="none" stroke="#000000" points="195.5,-2679.5 250.5,-2679.5 "/>
<text text-anchor="middle" x="223" y="-2664.3" font-family="Times,serif" font-size="14.00" fill="#000000">output:</text>
<polyline fill="none" stroke="#000000" points="250.5,-2656.5 250.5,-2702.5 "/>
<text text-anchor="middle" x="313" y="-2687.3" font-family="Times,serif" font-size="14.00" fill="#000000">(None, 256, 256, 1)</text>
<polyline fill="none" stroke="#000000" points="250.5,-2679.5 375.5,-2679.5 "/>
<text text-anchor="middle" x="313" y="-2664.3" font-family="Times,serif" font-size="14.00" fill="#000000">(None, 256, 256, 1)</text>
</g>
<!-- 139815831976816 -->
<g id="node2" class="node">
<title>139815831976816</title>
<polygon fill="none" stroke="#000000" points="72,-2573.5 72,-2619.5 374,-2619.5 374,-2573.5 72,-2573.5"/>
<text text-anchor="middle" x="130" y="-2592.8" font-family="Times,serif" font-size="14.00" fill="#000000">conv1_1: Conv2D</text>
<polyline fill="none" stroke="#000000" points="188,-2573.5 188,-2619.5 "/>
<text text-anchor="middle" x="215.5" y="-2604.3" font-family="Times,serif" font-size="14.00" fill="#000000">input:</text>
<polyline fill="none" stroke="#000000" points="188,-2596.5 243,-2596.5 "/>
<text text-anchor="middle" x="215.5" y="-2581.3" font-family="Times,serif" font-size="14.00" fill="#000000">output:</text>
<polyline fill="none" stroke="#000000" points="243,-2573.5 243,-2619.5 "/>
<text text-anchor="middle" x="308.5" y="-2604.3" font-family="Times,serif" font-size="14.00" fill="#000000">(None, 256, 256, 1)</text>
<polyline fill="none" stroke="#000000" points="243,-2596.5 374,-2596.5 "/>
<text text-anchor="middle" x="308.5" y="-2581.3" font-family="Times,serif" font-size="14.00" fill="#000000">(None, 256, 256, 64)</text>
</g>
<!-- 139815833200792&#45;&gt;139815831976816 -->
<g id="edge1" class="edge">
<title>139815833200792&#45;&gt;139815831976816</title>
<path fill="none" stroke="#000000" d="M223,-2656.3799C223,-2648.1745 223,-2638.7679 223,-2629.8786"/>
<polygon fill="#000000" stroke="#000000" points="226.5001,-2629.784 223,-2619.784 219.5001,-2629.784 226.5001,-2629.784"/>
</g>
<!-- 139815858906448 -->
<g id="node3" class="node">
<title>139815858906448</title>
<polygon fill="none" stroke="#000000" points="72,-2490.5 72,-2536.5 374,-2536.5 374,-2490.5 72,-2490.5"/>
<text text-anchor="middle" x="130" y="-2509.8" font-family="Times,serif" font-size="14.00" fill="#000000">conv1_2: Conv2D</text>
<polyline fill="none" stroke="#000000" points="188,-2490.5 188,-2536.5 "/>
<text text-anchor="middle" x="215.5" y="-2521.3" font-family="Times,serif" font-size="14.00" fill="#000000">input:</text>
<polyline fill="none" stroke="#000000" points="188,-2513.5 243,-2513.5 "/>
<text text-anchor="middle" x="215.5" y="-2498.3" font-family="Times,serif" font-size="14.00" fill="#000000">output:</text>
<polyline fill="none" stroke="#000000" points="243,-2490.5 243,-2536.5 "/>
<text text-anchor="middle" x="308.5" y="-2521.3" font-family="Times,serif" font-size="14.00" fill="#000000">(None, 256, 256, 64)</text>
<polyline fill="none" stroke="#000000" points="243,-2513.5 374,-2513.5 "/>
<text text-anchor="middle" x="308.5" y="-2498.3" font-family="Times,serif" font-size="14.00" fill="#000000">(None, 128, 128, 64)</text>
</g>
<!-- 139815831976816&#45;&gt;139815858906448 -->
<g id="edge2" class="edge">
<title>139815831976816&#45;&gt;139815858906448</title>
<path fill="none" stroke="#000000" d="M223,-2573.3799C223,-2565.1745 223,-2555.7679 223,-2546.8786"/>
<polygon fill="#000000" stroke="#000000" points="226.5001,-2546.784 223,-2536.784 219.5001,-2546.784 226.5001,-2546.784"/>
</g>
<!-- 139815858921712 -->
<g id="node4" class="node">
<title>139815858921712</title>
<polygon fill="none" stroke="#000000" points="0,-2407.5 0,-2453.5 446,-2453.5 446,-2407.5 0,-2407.5"/>
<text text-anchor="middle" x="130" y="-2426.8" font-family="Times,serif" font-size="14.00" fill="#000000">batch_normalization_1: BatchNormalization</text>
<polyline fill="none" stroke="#000000" points="260,-2407.5 260,-2453.5 "/>
<text text-anchor="middle" x="287.5" y="-2438.3" font-family="Times,serif" font-size="14.00" fill="#000000">input:</text>
<polyline fill="none" stroke="#000000" points="260,-2430.5 315,-2430.5 "/>
<text text-anchor="middle" x="287.5" y="-2415.3" font-family="Times,serif" font-size="14.00" fill="#000000">output:</text>
<polyline fill="none" stroke="#000000" points="315,-2407.5 315,-2453.5 "/>
<text text-anchor="middle" x="380.5" y="-2438.3" font-family="Times,serif" font-size="14.00" fill="#000000">(None, 128, 128, 64)</text>
<polyline fill="none" stroke="#000000" points="315,-2430.5 446,-2430.5 "/>
<text text-anchor="middle" x="380.5" y="-2415.3" font-family="Times,serif" font-size="14.00" fill="#000000">(None, 128, 128, 64)</text>
</g>
<!-- 139815858906448&#45;&gt;139815858921712 -->
<g id="edge3" class="edge">
<title>139815858906448&#45;&gt;139815858921712</title>
<path fill="none" stroke="#000000" d="M223,-2490.3799C223,-2482.1745 223,-2472.7679 223,-2463.8786"/>
<polygon fill="#000000" stroke="#000000" points="226.5001,-2463.784 223,-2453.784 219.5001,-2463.784 226.5001,-2463.784"/>
</g>
<!-- 139815858925520 -->
<g id="node5" class="node">
<title>139815858925520</title>
<polygon fill="none" stroke="#000000" points="68.5,-2324.5 68.5,-2370.5 377.5,-2370.5 377.5,-2324.5 68.5,-2324.5"/>
<text text-anchor="middle" x="126.5" y="-2343.8" font-family="Times,serif" font-size="14.00" fill="#000000">conv2_1: Conv2D</text>
<polyline fill="none" stroke="#000000" points="184.5,-2324.5 184.5,-2370.5 "/>
<text text-anchor="middle" x="212" y="-2355.3" font-family="Times,serif" font-size="14.00" fill="#000000">input:</text>
<polyline fill="none" stroke="#000000" points="184.5,-2347.5 239.5,-2347.5 "/>
<text text-anchor="middle" x="212" y="-2332.3" font-family="Times,serif" font-size="14.00" fill="#000000">output:</text>
<polyline fill="none" stroke="#000000" points="239.5,-2324.5 239.5,-2370.5 "/>
<text text-anchor="middle" x="308.5" y="-2355.3" font-family="Times,serif" font-size="14.00" fill="#000000">(None, 128, 128, 64)</text>
<polyline fill="none" stroke="#000000" points="239.5,-2347.5 377.5,-2347.5 "/>
<text text-anchor="middle" x="308.5" y="-2332.3" font-family="Times,serif" font-size="14.00" fill="#000000">(None, 128, 128, 128)</text>
</g>
<!-- 139815858921712&#45;&gt;139815858925520 -->
<g id="edge4" class="edge">
<title>139815858921712&#45;&gt;139815858925520</title>
<path fill="none" stroke="#000000" d="M223,-2407.3799C223,-2399.1745 223,-2389.7679 223,-2380.8786"/>
<polygon fill="#000000" stroke="#000000" points="226.5001,-2380.784 223,-2370.784 219.5001,-2380.784 226.5001,-2380.784"/>
</g>
<!-- 139815820481760 -->
<g id="node6" class="node">
<title>139815820481760</title>
<polygon fill="none" stroke="#000000" points="68.5,-2241.5 68.5,-2287.5 377.5,-2287.5 377.5,-2241.5 68.5,-2241.5"/>
<text text-anchor="middle" x="126.5" y="-2260.8" font-family="Times,serif" font-size="14.00" fill="#000000">conv2_2: Conv2D</text>
<polyline fill="none" stroke="#000000" points="184.5,-2241.5 184.5,-2287.5 "/>
<text text-anchor="middle" x="212" y="-2272.3" font-family="Times,serif" font-size="14.00" fill="#000000">input:</text>
<polyline fill="none" stroke="#000000" points="184.5,-2264.5 239.5,-2264.5 "/>
<text text-anchor="middle" x="212" y="-2249.3" font-family="Times,serif" font-size="14.00" fill="#000000">output:</text>
<polyline fill="none" stroke="#000000" points="239.5,-2241.5 239.5,-2287.5 "/>
<text text-anchor="middle" x="308.5" y="-2272.3" font-family="Times,serif" font-size="14.00" fill="#000000">(None, 128, 128, 128)</text>
<polyline fill="none" stroke="#000000" points="239.5,-2264.5 377.5,-2264.5 "/>
<text text-anchor="middle" x="308.5" y="-2249.3" font-family="Times,serif" font-size="14.00" fill="#000000">(None, 64, 64, 128)</text>
</g>
<!-- 139815858925520&#45;&gt;139815820481760 -->
<g id="edge5" class="edge">
<title>139815858925520&#45;&gt;139815820481760</title>
<path fill="none" stroke="#000000" d="M223,-2324.3799C223,-2316.1745 223,-2306.7679 223,-2297.8786"/>
<polygon fill="#000000" stroke="#000000" points="226.5001,-2297.784 223,-2287.784 219.5001,-2297.784 226.5001,-2297.784"/>
</g>
<!-- 139815819499728 -->
<g id="node7" class="node">
<title>139815819499728</title>
<polygon fill="none" stroke="#000000" points="3,-2158.5 3,-2204.5 443,-2204.5 443,-2158.5 3,-2158.5"/>
<text text-anchor="middle" x="133" y="-2177.8" font-family="Times,serif" font-size="14.00" fill="#000000">batch_normalization_2: BatchNormalization</text>
<polyline fill="none" stroke="#000000" points="263,-2158.5 263,-2204.5 "/>
<text text-anchor="middle" x="290.5" y="-2189.3" font-family="Times,serif" font-size="14.00" fill="#000000">input:</text>
<polyline fill="none" stroke="#000000" points="263,-2181.5 318,-2181.5 "/>
<text text-anchor="middle" x="290.5" y="-2166.3" font-family="Times,serif" font-size="14.00" fill="#000000">output:</text>
<polyline fill="none" stroke="#000000" points="318,-2158.5 318,-2204.5 "/>
<text text-anchor="middle" x="380.5" y="-2189.3" font-family="Times,serif" font-size="14.00" fill="#000000">(None, 64, 64, 128)</text>
<polyline fill="none" stroke="#000000" points="318,-2181.5 443,-2181.5 "/>
<text text-anchor="middle" x="380.5" y="-2166.3" font-family="Times,serif" font-size="14.00" fill="#000000">(None, 64, 64, 128)</text>
</g>
<!-- 139815820481760&#45;&gt;139815819499728 -->
<g id="edge6" class="edge">
<title>139815820481760&#45;&gt;139815819499728</title>
<path fill="none" stroke="#000000" d="M223,-2241.3799C223,-2233.1745 223,-2223.7679 223,-2214.8786"/>
<polygon fill="#000000" stroke="#000000" points="226.5001,-2214.784 223,-2204.784 219.5001,-2214.784 226.5001,-2214.784"/>
</g>
<!-- 139815819501352 -->
<g id="node8" class="node">
<title>139815819501352</title>
<polygon fill="none" stroke="#000000" points="75,-2075.5 75,-2121.5 371,-2121.5 371,-2075.5 75,-2075.5"/>
<text text-anchor="middle" x="133" y="-2094.8" font-family="Times,serif" font-size="14.00" fill="#000000">conv3_1: Conv2D</text>
<polyline fill="none" stroke="#000000" points="191,-2075.5 191,-2121.5 "/>
<text text-anchor="middle" x="218.5" y="-2106.3" font-family="Times,serif" font-size="14.00" fill="#000000">input:</text>
<polyline fill="none" stroke="#000000" points="191,-2098.5 246,-2098.5 "/>
<text text-anchor="middle" x="218.5" y="-2083.3" font-family="Times,serif" font-size="14.00" fill="#000000">output:</text>
<polyline fill="none" stroke="#000000" points="246,-2075.5 246,-2121.5 "/>
<text text-anchor="middle" x="308.5" y="-2106.3" font-family="Times,serif" font-size="14.00" fill="#000000">(None, 64, 64, 128)</text>
<polyline fill="none" stroke="#000000" points="246,-2098.5 371,-2098.5 "/>
<text text-anchor="middle" x="308.5" y="-2083.3" font-family="Times,serif" font-size="14.00" fill="#000000">(None, 64, 64, 256)</text>
</g>
<!-- 139815819499728&#45;&gt;139815819501352 -->
<g id="edge7" class="edge">
<title>139815819499728&#45;&gt;139815819501352</title>
<path fill="none" stroke="#000000" d="M223,-2158.3799C223,-2150.1745 223,-2140.7679 223,-2131.8786"/>
<polygon fill="#000000" stroke="#000000" points="226.5001,-2131.784 223,-2121.784 219.5001,-2131.784 226.5001,-2131.784"/>
</g>
<!-- 139815819296384 -->
<g id="node9" class="node">
<title>139815819296384</title>
<polygon fill="none" stroke="#000000" points="75,-1992.5 75,-2038.5 371,-2038.5 371,-1992.5 75,-1992.5"/>
<text text-anchor="middle" x="133" y="-2011.8" font-family="Times,serif" font-size="14.00" fill="#000000">conv3_2: Conv2D</text>
<polyline fill="none" stroke="#000000" points="191,-1992.5 191,-2038.5 "/>
<text text-anchor="middle" x="218.5" y="-2023.3" font-family="Times,serif" font-size="14.00" fill="#000000">input:</text>
<polyline fill="none" stroke="#000000" points="191,-2015.5 246,-2015.5 "/>
<text text-anchor="middle" x="218.5" y="-2000.3" font-family="Times,serif" font-size="14.00" fill="#000000">output:</text>
<polyline fill="none" stroke="#000000" points="246,-1992.5 246,-2038.5 "/>
<text text-anchor="middle" x="308.5" y="-2023.3" font-family="Times,serif" font-size="14.00" fill="#000000">(None, 64, 64, 256)</text>
<polyline fill="none" stroke="#000000" points="246,-2015.5 371,-2015.5 "/>
<text text-anchor="middle" x="308.5" y="-2000.3" font-family="Times,serif" font-size="14.00" fill="#000000">(None, 64, 64, 256)</text>
</g>
<!-- 139815819501352&#45;&gt;139815819296384 -->
<g id="edge8" class="edge">
<title>139815819501352&#45;&gt;139815819296384</title>
<path fill="none" stroke="#000000" d="M223,-2075.3799C223,-2067.1745 223,-2057.7679 223,-2048.8786"/>
<polygon fill="#000000" stroke="#000000" points="226.5001,-2048.784 223,-2038.784 219.5001,-2048.784 226.5001,-2048.784"/>
</g>
<!-- 139815817819528 -->
<g id="node10" class="node">
<title>139815817819528</title>
<polygon fill="none" stroke="#000000" points="75,-1909.5 75,-1955.5 371,-1955.5 371,-1909.5 75,-1909.5"/>
<text text-anchor="middle" x="133" y="-1928.8" font-family="Times,serif" font-size="14.00" fill="#000000">conv3_3: Conv2D</text>
<polyline fill="none" stroke="#000000" points="191,-1909.5 191,-1955.5 "/>
<text text-anchor="middle" x="218.5" y="-1940.3" font-family="Times,serif" font-size="14.00" fill="#000000">input:</text>
<polyline fill="none" stroke="#000000" points="191,-1932.5 246,-1932.5 "/>
<text text-anchor="middle" x="218.5" y="-1917.3" font-family="Times,serif" font-size="14.00" fill="#000000">output:</text>
<polyline fill="none" stroke="#000000" points="246,-1909.5 246,-1955.5 "/>
<text text-anchor="middle" x="308.5" y="-1940.3" font-family="Times,serif" font-size="14.00" fill="#000000">(None, 64, 64, 256)</text>
<polyline fill="none" stroke="#000000" points="246,-1932.5 371,-1932.5 "/>
<text text-anchor="middle" x="308.5" y="-1917.3" font-family="Times,serif" font-size="14.00" fill="#000000">(None, 32, 32, 256)</text>
</g>
<!-- 139815819296384&#45;&gt;139815817819528 -->
<g id="edge9" class="edge">
<title>139815819296384&#45;&gt;139815817819528</title>
<path fill="none" stroke="#000000" d="M223,-1992.3799C223,-1984.1745 223,-1974.7679 223,-1965.8786"/>
<polygon fill="#000000" stroke="#000000" points="226.5001,-1965.784 223,-1955.784 219.5001,-1965.784 226.5001,-1965.784"/>
</g>
<!-- 139815818044472 -->
<g id="node11" class="node">
<title>139815818044472</title>
<polygon fill="none" stroke="#000000" points="3,-1826.5 3,-1872.5 443,-1872.5 443,-1826.5 3,-1826.5"/>
<text text-anchor="middle" x="133" y="-1845.8" font-family="Times,serif" font-size="14.00" fill="#000000">batch_normalization_3: BatchNormalization</text>
<polyline fill="none" stroke="#000000" points="263,-1826.5 263,-1872.5 "/>
<text text-anchor="middle" x="290.5" y="-1857.3" font-family="Times,serif" font-size="14.00" fill="#000000">input:</text>
<polyline fill="none" stroke="#000000" points="263,-1849.5 318,-1849.5 "/>
<text text-anchor="middle" x="290.5" y="-1834.3" font-family="Times,serif" font-size="14.00" fill="#000000">output:</text>
<polyline fill="none" stroke="#000000" points="318,-1826.5 318,-1872.5 "/>
<text text-anchor="middle" x="380.5" y="-1857.3" font-family="Times,serif" font-size="14.00" fill="#000000">(None, 32, 32, 256)</text>
<polyline fill="none" stroke="#000000" points="318,-1849.5 443,-1849.5 "/>
<text text-anchor="middle" x="380.5" y="-1834.3" font-family="Times,serif" font-size="14.00" fill="#000000">(None, 32, 32, 256)</text>
</g>
<!-- 139815817819528&#45;&gt;139815818044472 -->
<g id="edge10" class="edge">
<title>139815817819528&#45;&gt;139815818044472</title>
<path fill="none" stroke="#000000" d="M223,-1909.3799C223,-1901.1745 223,-1891.7679 223,-1882.8786"/>
<polygon fill="#000000" stroke="#000000" points="226.5001,-1882.784 223,-1872.784 219.5001,-1882.784 226.5001,-1882.784"/>
</g>
<!-- 139815818044584 -->
<g id="node12" class="node">
<title>139815818044584</title>
<polygon fill="none" stroke="#000000" points="75,-1743.5 75,-1789.5 371,-1789.5 371,-1743.5 75,-1743.5"/>
<text text-anchor="middle" x="133" y="-1762.8" font-family="Times,serif" font-size="14.00" fill="#000000">conv4_1: Conv2D</text>
<polyline fill="none" stroke="#000000" points="191,-1743.5 191,-1789.5 "/>
<text text-anchor="middle" x="218.5" y="-1774.3" font-family="Times,serif" font-size="14.00" fill="#000000">input:</text>
<polyline fill="none" stroke="#000000" points="191,-1766.5 246,-1766.5 "/>
<text text-anchor="middle" x="218.5" y="-1751.3" font-family="Times,serif" font-size="14.00" fill="#000000">output:</text>
<polyline fill="none" stroke="#000000" points="246,-1743.5 246,-1789.5 "/>
<text text-anchor="middle" x="308.5" y="-1774.3" font-family="Times,serif" font-size="14.00" fill="#000000">(None, 32, 32, 256)</text>
<polyline fill="none" stroke="#000000" points="246,-1766.5 371,-1766.5 "/>
<text text-anchor="middle" x="308.5" y="-1751.3" font-family="Times,serif" font-size="14.00" fill="#000000">(None, 32, 32, 512)</text>
</g>
<!-- 139815818044472&#45;&gt;139815818044584 -->
<g id="edge11" class="edge">
<title>139815818044472&#45;&gt;139815818044584</title>
<path fill="none" stroke="#000000" d="M223,-1826.3799C223,-1818.1745 223,-1808.7679 223,-1799.8786"/>
<polygon fill="#000000" stroke="#000000" points="226.5001,-1799.784 223,-1789.784 219.5001,-1799.784 226.5001,-1799.784"/>
</g>
<!-- 139815817711456 -->
<g id="node13" class="node">
<title>139815817711456</title>
<polygon fill="none" stroke="#000000" points="75,-1660.5 75,-1706.5 371,-1706.5 371,-1660.5 75,-1660.5"/>
<text text-anchor="middle" x="133" y="-1679.8" font-family="Times,serif" font-size="14.00" fill="#000000">conv4_2: Conv2D</text>
<polyline fill="none" stroke="#000000" points="191,-1660.5 191,-1706.5 "/>
<text text-anchor="middle" x="218.5" y="-1691.3" font-family="Times,serif" font-size="14.00" fill="#000000">input:</text>
<polyline fill="none" stroke="#000000" points="191,-1683.5 246,-1683.5 "/>
<text text-anchor="middle" x="218.5" y="-1668.3" font-family="Times,serif" font-size="14.00" fill="#000000">output:</text>
<polyline fill="none" stroke="#000000" points="246,-1660.5 246,-1706.5 "/>
<text text-anchor="middle" x="308.5" y="-1691.3" font-family="Times,serif" font-size="14.00" fill="#000000">(None, 32, 32, 512)</text>
<polyline fill="none" stroke="#000000" points="246,-1683.5 371,-1683.5 "/>
<text text-anchor="middle" x="308.5" y="-1668.3" font-family="Times,serif" font-size="14.00" fill="#000000">(None, 32, 32, 512)</text>
</g>
<!-- 139815818044584&#45;&gt;139815817711456 -->
<g id="edge12" class="edge">
<title>139815818044584&#45;&gt;139815817711456</title>
<path fill="none" stroke="#000000" d="M223,-1743.3799C223,-1735.1745 223,-1725.7679 223,-1716.8786"/>
<polygon fill="#000000" stroke="#000000" points="226.5001,-1716.784 223,-1706.784 219.5001,-1716.784 226.5001,-1716.784"/>
</g>
<!-- 139815816242288 -->
<g id="node14" class="node">
<title>139815816242288</title>
<polygon fill="none" stroke="#000000" points="75,-1577.5 75,-1623.5 371,-1623.5 371,-1577.5 75,-1577.5"/>
<text text-anchor="middle" x="133" y="-1596.8" font-family="Times,serif" font-size="14.00" fill="#000000">conv4_3: Conv2D</text>
<polyline fill="none" stroke="#000000" points="191,-1577.5 191,-1623.5 "/>
<text text-anchor="middle" x="218.5" y="-1608.3" font-family="Times,serif" font-size="14.00" fill="#000000">input:</text>
<polyline fill="none" stroke="#000000" points="191,-1600.5 246,-1600.5 "/>
<text text-anchor="middle" x="218.5" y="-1585.3" font-family="Times,serif" font-size="14.00" fill="#000000">output:</text>
<polyline fill="none" stroke="#000000" points="246,-1577.5 246,-1623.5 "/>
<text text-anchor="middle" x="308.5" y="-1608.3" font-family="Times,serif" font-size="14.00" fill="#000000">(None, 32, 32, 512)</text>
<polyline fill="none" stroke="#000000" points="246,-1600.5 371,-1600.5 "/>
<text text-anchor="middle" x="308.5" y="-1585.3" font-family="Times,serif" font-size="14.00" fill="#000000">(None, 32, 32, 512)</text>
</g>
<!-- 139815817711456&#45;&gt;139815816242288 -->
<g id="edge13" class="edge">
<title>139815817711456&#45;&gt;139815816242288</title>
<path fill="none" stroke="#000000" d="M223,-1660.3799C223,-1652.1745 223,-1642.7679 223,-1633.8786"/>
<polygon fill="#000000" stroke="#000000" points="226.5001,-1633.784 223,-1623.784 219.5001,-1633.784 226.5001,-1633.784"/>
</g>
<!-- 139815816454944 -->
<g id="node15" class="node">
<title>139815816454944</title>
<polygon fill="none" stroke="#000000" points="3,-1494.5 3,-1540.5 443,-1540.5 443,-1494.5 3,-1494.5"/>
<text text-anchor="middle" x="133" y="-1513.8" font-family="Times,serif" font-size="14.00" fill="#000000">batch_normalization_4: BatchNormalization</text>
<polyline fill="none" stroke="#000000" points="263,-1494.5 263,-1540.5 "/>
<text text-anchor="middle" x="290.5" y="-1525.3" font-family="Times,serif" font-size="14.00" fill="#000000">input:</text>
<polyline fill="none" stroke="#000000" points="263,-1517.5 318,-1517.5 "/>
<text text-anchor="middle" x="290.5" y="-1502.3" font-family="Times,serif" font-size="14.00" fill="#000000">output:</text>
<polyline fill="none" stroke="#000000" points="318,-1494.5 318,-1540.5 "/>
<text text-anchor="middle" x="380.5" y="-1525.3" font-family="Times,serif" font-size="14.00" fill="#000000">(None, 32, 32, 512)</text>
<polyline fill="none" stroke="#000000" points="318,-1517.5 443,-1517.5 "/>
<text text-anchor="middle" x="380.5" y="-1502.3" font-family="Times,serif" font-size="14.00" fill="#000000">(None, 32, 32, 512)</text>
</g>
<!-- 139815816242288&#45;&gt;139815816454944 -->
<g id="edge14" class="edge">
<title>139815816242288&#45;&gt;139815816454944</title>
<path fill="none" stroke="#000000" d="M223,-1577.3799C223,-1569.1745 223,-1559.7679 223,-1550.8786"/>
<polygon fill="#000000" stroke="#000000" points="226.5001,-1550.784 223,-1540.784 219.5001,-1550.784 226.5001,-1550.784"/>
</g>
<!-- 139815816455056 -->
<g id="node16" class="node">
<title>139815816455056</title>
<polygon fill="none" stroke="#000000" points="75,-1411.5 75,-1457.5 371,-1457.5 371,-1411.5 75,-1411.5"/>
<text text-anchor="middle" x="133" y="-1430.8" font-family="Times,serif" font-size="14.00" fill="#000000">conv5_1: Conv2D</text>
<polyline fill="none" stroke="#000000" points="191,-1411.5 191,-1457.5 "/>
<text text-anchor="middle" x="218.5" y="-1442.3" font-family="Times,serif" font-size="14.00" fill="#000000">input:</text>
<polyline fill="none" stroke="#000000" points="191,-1434.5 246,-1434.5 "/>
<text text-anchor="middle" x="218.5" y="-1419.3" font-family="Times,serif" font-size="14.00" fill="#000000">output:</text>
<polyline fill="none" stroke="#000000" points="246,-1411.5 246,-1457.5 "/>
<text text-anchor="middle" x="308.5" y="-1442.3" font-family="Times,serif" font-size="14.00" fill="#000000">(None, 32, 32, 512)</text>
<polyline fill="none" stroke="#000000" points="246,-1434.5 371,-1434.5 "/>
<text text-anchor="middle" x="308.5" y="-1419.3" font-family="Times,serif" font-size="14.00" fill="#000000">(None, 32, 32, 512)</text>
</g>
<!-- 139815816454944&#45;&gt;139815816455056 -->
<g id="edge15" class="edge">
<title>139815816454944&#45;&gt;139815816455056</title>
<path fill="none" stroke="#000000" d="M223,-1494.3799C223,-1486.1745 223,-1476.7679 223,-1467.8786"/>
<polygon fill="#000000" stroke="#000000" points="226.5001,-1467.784 223,-1457.784 219.5001,-1467.784 226.5001,-1467.784"/>
</g>
<!-- 139815815721872 -->
<g id="node17" class="node">
<title>139815815721872</title>
<polygon fill="none" stroke="#000000" points="75,-1328.5 75,-1374.5 371,-1374.5 371,-1328.5 75,-1328.5"/>
<text text-anchor="middle" x="133" y="-1347.8" font-family="Times,serif" font-size="14.00" fill="#000000">conv5_2: Conv2D</text>
<polyline fill="none" stroke="#000000" points="191,-1328.5 191,-1374.5 "/>
<text text-anchor="middle" x="218.5" y="-1359.3" font-family="Times,serif" font-size="14.00" fill="#000000">input:</text>
<polyline fill="none" stroke="#000000" points="191,-1351.5 246,-1351.5 "/>
<text text-anchor="middle" x="218.5" y="-1336.3" font-family="Times,serif" font-size="14.00" fill="#000000">output:</text>
<polyline fill="none" stroke="#000000" points="246,-1328.5 246,-1374.5 "/>
<text text-anchor="middle" x="308.5" y="-1359.3" font-family="Times,serif" font-size="14.00" fill="#000000">(None, 32, 32, 512)</text>
<polyline fill="none" stroke="#000000" points="246,-1351.5 371,-1351.5 "/>
<text text-anchor="middle" x="308.5" y="-1336.3" font-family="Times,serif" font-size="14.00" fill="#000000">(None, 32, 32, 512)</text>
</g>
<!-- 139815816455056&#45;&gt;139815815721872 -->
<g id="edge16" class="edge">
<title>139815816455056&#45;&gt;139815815721872</title>
<path fill="none" stroke="#000000" d="M223,-1411.3799C223,-1403.1745 223,-1393.7679 223,-1384.8786"/>
<polygon fill="#000000" stroke="#000000" points="226.5001,-1384.784 223,-1374.784 219.5001,-1384.784 226.5001,-1384.784"/>
</g>
<!-- 139815688735600 -->
<g id="node18" class="node">
<title>139815688735600</title>
<polygon fill="none" stroke="#000000" points="75,-1245.5 75,-1291.5 371,-1291.5 371,-1245.5 75,-1245.5"/>
<text text-anchor="middle" x="133" y="-1264.8" font-family="Times,serif" font-size="14.00" fill="#000000">conv5_3: Conv2D</text>
<polyline fill="none" stroke="#000000" points="191,-1245.5 191,-1291.5 "/>
<text text-anchor="middle" x="218.5" y="-1276.3" font-family="Times,serif" font-size="14.00" fill="#000000">input:</text>
<polyline fill="none" stroke="#000000" points="191,-1268.5 246,-1268.5 "/>
<text text-anchor="middle" x="218.5" y="-1253.3" font-family="Times,serif" font-size="14.00" fill="#000000">output:</text>
<polyline fill="none" stroke="#000000" points="246,-1245.5 246,-1291.5 "/>
<text text-anchor="middle" x="308.5" y="-1276.3" font-family="Times,serif" font-size="14.00" fill="#000000">(None, 32, 32, 512)</text>
<polyline fill="none" stroke="#000000" points="246,-1268.5 371,-1268.5 "/>
<text text-anchor="middle" x="308.5" y="-1253.3" font-family="Times,serif" font-size="14.00" fill="#000000">(None, 32, 32, 512)</text>
</g>
<!-- 139815815721872&#45;&gt;139815688735600 -->
<g id="edge17" class="edge">
<title>139815815721872&#45;&gt;139815688735600</title>
<path fill="none" stroke="#000000" d="M223,-1328.3799C223,-1320.1745 223,-1310.7679 223,-1301.8786"/>
<polygon fill="#000000" stroke="#000000" points="226.5001,-1301.784 223,-1291.784 219.5001,-1301.784 226.5001,-1301.784"/>
</g>
<!-- 139815688554144 -->
<g id="node19" class="node">
<title>139815688554144</title>
<polygon fill="none" stroke="#000000" points="3,-1162.5 3,-1208.5 443,-1208.5 443,-1162.5 3,-1162.5"/>
<text text-anchor="middle" x="133" y="-1181.8" font-family="Times,serif" font-size="14.00" fill="#000000">batch_normalization_5: BatchNormalization</text>
<polyline fill="none" stroke="#000000" points="263,-1162.5 263,-1208.5 "/>
<text text-anchor="middle" x="290.5" y="-1193.3" font-family="Times,serif" font-size="14.00" fill="#000000">input:</text>
<polyline fill="none" stroke="#000000" points="263,-1185.5 318,-1185.5 "/>
<text text-anchor="middle" x="290.5" y="-1170.3" font-family="Times,serif" font-size="14.00" fill="#000000">output:</text>
<polyline fill="none" stroke="#000000" points="318,-1162.5 318,-1208.5 "/>
<text text-anchor="middle" x="380.5" y="-1193.3" font-family="Times,serif" font-size="14.00" fill="#000000">(None, 32, 32, 512)</text>
<polyline fill="none" stroke="#000000" points="318,-1185.5 443,-1185.5 "/>
<text text-anchor="middle" x="380.5" y="-1170.3" font-family="Times,serif" font-size="14.00" fill="#000000">(None, 32, 32, 512)</text>
</g>
<!-- 139815688735600&#45;&gt;139815688554144 -->
<g id="edge18" class="edge">
<title>139815688735600&#45;&gt;139815688554144</title>
<path fill="none" stroke="#000000" d="M223,-1245.3799C223,-1237.1745 223,-1227.7679 223,-1218.8786"/>
<polygon fill="#000000" stroke="#000000" points="226.5001,-1218.784 223,-1208.784 219.5001,-1218.784 226.5001,-1218.784"/>
</g>
<!-- 139815688552520 -->
<g id="node20" class="node">
<title>139815688552520</title>
<polygon fill="none" stroke="#000000" points="75,-1079.5 75,-1125.5 371,-1125.5 371,-1079.5 75,-1079.5"/>
<text text-anchor="middle" x="133" y="-1098.8" font-family="Times,serif" font-size="14.00" fill="#000000">conv6_1: Conv2D</text>
<polyline fill="none" stroke="#000000" points="191,-1079.5 191,-1125.5 "/>
<text text-anchor="middle" x="218.5" y="-1110.3" font-family="Times,serif" font-size="14.00" fill="#000000">input:</text>
<polyline fill="none" stroke="#000000" points="191,-1102.5 246,-1102.5 "/>
<text text-anchor="middle" x="218.5" y="-1087.3" font-family="Times,serif" font-size="14.00" fill="#000000">output:</text>
<polyline fill="none" stroke="#000000" points="246,-1079.5 246,-1125.5 "/>
<text text-anchor="middle" x="308.5" y="-1110.3" font-family="Times,serif" font-size="14.00" fill="#000000">(None, 32, 32, 512)</text>
<polyline fill="none" stroke="#000000" points="246,-1102.5 371,-1102.5 "/>
<text text-anchor="middle" x="308.5" y="-1087.3" font-family="Times,serif" font-size="14.00" fill="#000000">(None, 32, 32, 512)</text>
</g>
<!-- 139815688554144&#45;&gt;139815688552520 -->
<g id="edge19" class="edge">
<title>139815688554144&#45;&gt;139815688552520</title>
<path fill="none" stroke="#000000" d="M223,-1162.3799C223,-1154.1745 223,-1144.7679 223,-1135.8786"/>
<polygon fill="#000000" stroke="#000000" points="226.5001,-1135.784 223,-1125.784 219.5001,-1135.784 226.5001,-1135.784"/>
</g>
<!-- 139815687879984 -->
<g id="node21" class="node">
<title>139815687879984</title>
<polygon fill="none" stroke="#000000" points="75,-996.5 75,-1042.5 371,-1042.5 371,-996.5 75,-996.5"/>
<text text-anchor="middle" x="133" y="-1015.8" font-family="Times,serif" font-size="14.00" fill="#000000">conv6_2: Conv2D</text>
<polyline fill="none" stroke="#000000" points="191,-996.5 191,-1042.5 "/>
<text text-anchor="middle" x="218.5" y="-1027.3" font-family="Times,serif" font-size="14.00" fill="#000000">input:</text>
<polyline fill="none" stroke="#000000" points="191,-1019.5 246,-1019.5 "/>
<text text-anchor="middle" x="218.5" y="-1004.3" font-family="Times,serif" font-size="14.00" fill="#000000">output:</text>
<polyline fill="none" stroke="#000000" points="246,-996.5 246,-1042.5 "/>
<text text-anchor="middle" x="308.5" y="-1027.3" font-family="Times,serif" font-size="14.00" fill="#000000">(None, 32, 32, 512)</text>
<polyline fill="none" stroke="#000000" points="246,-1019.5 371,-1019.5 "/>
<text text-anchor="middle" x="308.5" y="-1004.3" font-family="Times,serif" font-size="14.00" fill="#000000">(None, 32, 32, 512)</text>
</g>
<!-- 139815688552520&#45;&gt;139815687879984 -->
<g id="edge20" class="edge">
<title>139815688552520&#45;&gt;139815687879984</title>
<path fill="none" stroke="#000000" d="M223,-1079.3799C223,-1071.1745 223,-1061.7679 223,-1052.8786"/>
<polygon fill="#000000" stroke="#000000" points="226.5001,-1052.784 223,-1042.784 219.5001,-1052.784 226.5001,-1052.784"/>
</g>
<!-- 139815686979312 -->
<g id="node22" class="node">
<title>139815686979312</title>
<polygon fill="none" stroke="#000000" points="75,-913.5 75,-959.5 371,-959.5 371,-913.5 75,-913.5"/>
<text text-anchor="middle" x="133" y="-932.8" font-family="Times,serif" font-size="14.00" fill="#000000">conv6_3: Conv2D</text>
<polyline fill="none" stroke="#000000" points="191,-913.5 191,-959.5 "/>
<text text-anchor="middle" x="218.5" y="-944.3" font-family="Times,serif" font-size="14.00" fill="#000000">input:</text>
<polyline fill="none" stroke="#000000" points="191,-936.5 246,-936.5 "/>
<text text-anchor="middle" x="218.5" y="-921.3" font-family="Times,serif" font-size="14.00" fill="#000000">output:</text>
<polyline fill="none" stroke="#000000" points="246,-913.5 246,-959.5 "/>
<text text-anchor="middle" x="308.5" y="-944.3" font-family="Times,serif" font-size="14.00" fill="#000000">(None, 32, 32, 512)</text>
<polyline fill="none" stroke="#000000" points="246,-936.5 371,-936.5 "/>
<text text-anchor="middle" x="308.5" y="-921.3" font-family="Times,serif" font-size="14.00" fill="#000000">(None, 32, 32, 512)</text>
</g>
<!-- 139815687879984&#45;&gt;139815686979312 -->
<g id="edge21" class="edge">
<title>139815687879984&#45;&gt;139815686979312</title>
<path fill="none" stroke="#000000" d="M223,-996.3799C223,-988.1745 223,-978.7679 223,-969.8786"/>
<polygon fill="#000000" stroke="#000000" points="226.5001,-969.784 223,-959.784 219.5001,-969.784 226.5001,-969.784"/>
</g>
<!-- 139815686277776 -->
<g id="node23" class="node">
<title>139815686277776</title>
<polygon fill="none" stroke="#000000" points="3,-830.5 3,-876.5 443,-876.5 443,-830.5 3,-830.5"/>
<text text-anchor="middle" x="133" y="-849.8" font-family="Times,serif" font-size="14.00" fill="#000000">batch_normalization_6: BatchNormalization</text>
<polyline fill="none" stroke="#000000" points="263,-830.5 263,-876.5 "/>
<text text-anchor="middle" x="290.5" y="-861.3" font-family="Times,serif" font-size="14.00" fill="#000000">input:</text>
<polyline fill="none" stroke="#000000" points="263,-853.5 318,-853.5 "/>
<text text-anchor="middle" x="290.5" y="-838.3" font-family="Times,serif" font-size="14.00" fill="#000000">output:</text>
<polyline fill="none" stroke="#000000" points="318,-830.5 318,-876.5 "/>
<text text-anchor="middle" x="380.5" y="-861.3" font-family="Times,serif" font-size="14.00" fill="#000000">(None, 32, 32, 512)</text>
<polyline fill="none" stroke="#000000" points="318,-853.5 443,-853.5 "/>
<text text-anchor="middle" x="380.5" y="-838.3" font-family="Times,serif" font-size="14.00" fill="#000000">(None, 32, 32, 512)</text>
</g>
<!-- 139815686979312&#45;&gt;139815686277776 -->
<g id="edge22" class="edge">
<title>139815686979312&#45;&gt;139815686277776</title>
<path fill="none" stroke="#000000" d="M223,-913.3799C223,-905.1745 223,-895.7679 223,-886.8786"/>
<polygon fill="#000000" stroke="#000000" points="226.5001,-886.784 223,-876.784 219.5001,-886.784 226.5001,-886.784"/>
</g>
<!-- 139815686278896 -->
<g id="node24" class="node">
<title>139815686278896</title>
<polygon fill="none" stroke="#000000" points="75,-747.5 75,-793.5 371,-793.5 371,-747.5 75,-747.5"/>
<text text-anchor="middle" x="133" y="-766.8" font-family="Times,serif" font-size="14.00" fill="#000000">conv7_1: Conv2D</text>
<polyline fill="none" stroke="#000000" points="191,-747.5 191,-793.5 "/>
<text text-anchor="middle" x="218.5" y="-778.3" font-family="Times,serif" font-size="14.00" fill="#000000">input:</text>
<polyline fill="none" stroke="#000000" points="191,-770.5 246,-770.5 "/>
<text text-anchor="middle" x="218.5" y="-755.3" font-family="Times,serif" font-size="14.00" fill="#000000">output:</text>
<polyline fill="none" stroke="#000000" points="246,-747.5 246,-793.5 "/>
<text text-anchor="middle" x="308.5" y="-778.3" font-family="Times,serif" font-size="14.00" fill="#000000">(None, 32, 32, 512)</text>
<polyline fill="none" stroke="#000000" points="246,-770.5 371,-770.5 "/>
<text text-anchor="middle" x="308.5" y="-755.3" font-family="Times,serif" font-size="14.00" fill="#000000">(None, 32, 32, 256)</text>
</g>
<!-- 139815686277776&#45;&gt;139815686278896 -->
<g id="edge23" class="edge">
<title>139815686277776&#45;&gt;139815686278896</title>
<path fill="none" stroke="#000000" d="M223,-830.3799C223,-822.1745 223,-812.7679 223,-803.8786"/>
<polygon fill="#000000" stroke="#000000" points="226.5001,-803.784 223,-793.784 219.5001,-803.784 226.5001,-803.784"/>
</g>
<!-- 139815685575512 -->
<g id="node25" class="node">
<title>139815685575512</title>
<polygon fill="none" stroke="#000000" points="75,-664.5 75,-710.5 371,-710.5 371,-664.5 75,-664.5"/>
<text text-anchor="middle" x="133" y="-683.8" font-family="Times,serif" font-size="14.00" fill="#000000">conv7_2: Conv2D</text>
<polyline fill="none" stroke="#000000" points="191,-664.5 191,-710.5 "/>
<text text-anchor="middle" x="218.5" y="-695.3" font-family="Times,serif" font-size="14.00" fill="#000000">input:</text>
<polyline fill="none" stroke="#000000" points="191,-687.5 246,-687.5 "/>
<text text-anchor="middle" x="218.5" y="-672.3" font-family="Times,serif" font-size="14.00" fill="#000000">output:</text>
<polyline fill="none" stroke="#000000" points="246,-664.5 246,-710.5 "/>
<text text-anchor="middle" x="308.5" y="-695.3" font-family="Times,serif" font-size="14.00" fill="#000000">(None, 32, 32, 256)</text>
<polyline fill="none" stroke="#000000" points="246,-687.5 371,-687.5 "/>
<text text-anchor="middle" x="308.5" y="-672.3" font-family="Times,serif" font-size="14.00" fill="#000000">(None, 32, 32, 256)</text>
</g>
<!-- 139815686278896&#45;&gt;139815685575512 -->
<g id="edge24" class="edge">
<title>139815686278896&#45;&gt;139815685575512</title>
<path fill="none" stroke="#000000" d="M223,-747.3799C223,-739.1745 223,-729.7679 223,-720.8786"/>
<polygon fill="#000000" stroke="#000000" points="226.5001,-720.784 223,-710.784 219.5001,-720.784 226.5001,-720.784"/>
</g>
<!-- 139815832915304 -->
<g id="node26" class="node">
<title>139815832915304</title>
<polygon fill="none" stroke="#000000" points="75,-581.5 75,-627.5 371,-627.5 371,-581.5 75,-581.5"/>
<text text-anchor="middle" x="133" y="-600.8" font-family="Times,serif" font-size="14.00" fill="#000000">conv7_3: Conv2D</text>
<polyline fill="none" stroke="#000000" points="191,-581.5 191,-627.5 "/>
<text text-anchor="middle" x="218.5" y="-612.3" font-family="Times,serif" font-size="14.00" fill="#000000">input:</text>
<polyline fill="none" stroke="#000000" points="191,-604.5 246,-604.5 "/>
<text text-anchor="middle" x="218.5" y="-589.3" font-family="Times,serif" font-size="14.00" fill="#000000">output:</text>
<polyline fill="none" stroke="#000000" points="246,-581.5 246,-627.5 "/>
<text text-anchor="middle" x="308.5" y="-612.3" font-family="Times,serif" font-size="14.00" fill="#000000">(None, 32, 32, 256)</text>
<polyline fill="none" stroke="#000000" points="246,-604.5 371,-604.5 "/>
<text text-anchor="middle" x="308.5" y="-589.3" font-family="Times,serif" font-size="14.00" fill="#000000">(None, 32, 32, 256)</text>
</g>
<!-- 139815685575512&#45;&gt;139815832915304 -->
<g id="edge25" class="edge">
<title>139815685575512&#45;&gt;139815832915304</title>
<path fill="none" stroke="#000000" d="M223,-664.3799C223,-656.1745 223,-646.7679 223,-637.8786"/>
<polygon fill="#000000" stroke="#000000" points="226.5001,-637.784 223,-627.784 219.5001,-637.784 226.5001,-637.784"/>
</g>
<!-- 139815832967152 -->
<g id="node27" class="node">
<title>139815832967152</title>
<polygon fill="none" stroke="#000000" points="3,-498.5 3,-544.5 443,-544.5 443,-498.5 3,-498.5"/>
<text text-anchor="middle" x="133" y="-517.8" font-family="Times,serif" font-size="14.00" fill="#000000">batch_normalization_7: BatchNormalization</text>
<polyline fill="none" stroke="#000000" points="263,-498.5 263,-544.5 "/>
<text text-anchor="middle" x="290.5" y="-529.3" font-family="Times,serif" font-size="14.00" fill="#000000">input:</text>
<polyline fill="none" stroke="#000000" points="263,-521.5 318,-521.5 "/>
<text text-anchor="middle" x="290.5" y="-506.3" font-family="Times,serif" font-size="14.00" fill="#000000">output:</text>
<polyline fill="none" stroke="#000000" points="318,-498.5 318,-544.5 "/>
<text text-anchor="middle" x="380.5" y="-529.3" font-family="Times,serif" font-size="14.00" fill="#000000">(None, 32, 32, 256)</text>
<polyline fill="none" stroke="#000000" points="318,-521.5 443,-521.5 "/>
<text text-anchor="middle" x="380.5" y="-506.3" font-family="Times,serif" font-size="14.00" fill="#000000">(None, 32, 32, 256)</text>
</g>
<!-- 139815832915304&#45;&gt;139815832967152 -->
<g id="edge26" class="edge">
<title>139815832915304&#45;&gt;139815832967152</title>
<path fill="none" stroke="#000000" d="M223,-581.3799C223,-573.1745 223,-563.7679 223,-554.8786"/>
<polygon fill="#000000" stroke="#000000" points="226.5001,-554.784 223,-544.784 219.5001,-554.784 226.5001,-554.784"/>
</g>
<!-- 139815832966144 -->
<g id="node28" class="node">
<title>139815832966144</title>
<polygon fill="none" stroke="#000000" points="29.5,-415.5 29.5,-461.5 416.5,-461.5 416.5,-415.5 29.5,-415.5"/>
<text text-anchor="middle" x="133" y="-434.8" font-family="Times,serif" font-size="14.00" fill="#000000">up_sampling2d_1: UpSampling2D</text>
<polyline fill="none" stroke="#000000" points="236.5,-415.5 236.5,-461.5 "/>
<text text-anchor="middle" x="264" y="-446.3" font-family="Times,serif" font-size="14.00" fill="#000000">input:</text>
<polyline fill="none" stroke="#000000" points="236.5,-438.5 291.5,-438.5 "/>
<text text-anchor="middle" x="264" y="-423.3" font-family="Times,serif" font-size="14.00" fill="#000000">output:</text>
<polyline fill="none" stroke="#000000" points="291.5,-415.5 291.5,-461.5 "/>
<text text-anchor="middle" x="354" y="-446.3" font-family="Times,serif" font-size="14.00" fill="#000000">(None, 32, 32, 256)</text>
<polyline fill="none" stroke="#000000" points="291.5,-438.5 416.5,-438.5 "/>
<text text-anchor="middle" x="354" y="-423.3" font-family="Times,serif" font-size="14.00" fill="#000000">(None, 64, 64, 256)</text>
</g>
<!-- 139815832967152&#45;&gt;139815832966144 -->
<g id="edge27" class="edge">
<title>139815832967152&#45;&gt;139815832966144</title>
<path fill="none" stroke="#000000" d="M223,-498.3799C223,-490.1745 223,-480.7679 223,-471.8786"/>
<polygon fill="#000000" stroke="#000000" points="226.5001,-471.784 223,-461.784 219.5001,-471.784 226.5001,-471.784"/>
</g>
<!-- 139815684157280 -->
<g id="node29" class="node">
<title>139815684157280</title>
<polygon fill="none" stroke="#000000" points="75,-332.5 75,-378.5 371,-378.5 371,-332.5 75,-332.5"/>
<text text-anchor="middle" x="133" y="-351.8" font-family="Times,serif" font-size="14.00" fill="#000000">conv8_1: Conv2D</text>
<polyline fill="none" stroke="#000000" points="191,-332.5 191,-378.5 "/>
<text text-anchor="middle" x="218.5" y="-363.3" font-family="Times,serif" font-size="14.00" fill="#000000">input:</text>
<polyline fill="none" stroke="#000000" points="191,-355.5 246,-355.5 "/>
<text text-anchor="middle" x="218.5" y="-340.3" font-family="Times,serif" font-size="14.00" fill="#000000">output:</text>
<polyline fill="none" stroke="#000000" points="246,-332.5 246,-378.5 "/>
<text text-anchor="middle" x="308.5" y="-363.3" font-family="Times,serif" font-size="14.00" fill="#000000">(None, 64, 64, 256)</text>
<polyline fill="none" stroke="#000000" points="246,-355.5 371,-355.5 "/>
<text text-anchor="middle" x="308.5" y="-340.3" font-family="Times,serif" font-size="14.00" fill="#000000">(None, 64, 64, 128)</text>
</g>
<!-- 139815832966144&#45;&gt;139815684157280 -->
<g id="edge28" class="edge">
<title>139815832966144&#45;&gt;139815684157280</title>
<path fill="none" stroke="#000000" d="M223,-415.3799C223,-407.1745 223,-397.7679 223,-388.8786"/>
<polygon fill="#000000" stroke="#000000" points="226.5001,-388.784 223,-378.784 219.5001,-388.784 226.5001,-388.784"/>
</g>
<!-- 139815683379552 -->
<g id="node30" class="node">
<title>139815683379552</title>
<polygon fill="none" stroke="#000000" points="75,-249.5 75,-295.5 371,-295.5 371,-249.5 75,-249.5"/>
<text text-anchor="middle" x="133" y="-268.8" font-family="Times,serif" font-size="14.00" fill="#000000">conv8_2: Conv2D</text>
<polyline fill="none" stroke="#000000" points="191,-249.5 191,-295.5 "/>
<text text-anchor="middle" x="218.5" y="-280.3" font-family="Times,serif" font-size="14.00" fill="#000000">input:</text>
<polyline fill="none" stroke="#000000" points="191,-272.5 246,-272.5 "/>
<text text-anchor="middle" x="218.5" y="-257.3" font-family="Times,serif" font-size="14.00" fill="#000000">output:</text>
<polyline fill="none" stroke="#000000" points="246,-249.5 246,-295.5 "/>
<text text-anchor="middle" x="308.5" y="-280.3" font-family="Times,serif" font-size="14.00" fill="#000000">(None, 64, 64, 128)</text>
<polyline fill="none" stroke="#000000" points="246,-272.5 371,-272.5 "/>
<text text-anchor="middle" x="308.5" y="-257.3" font-family="Times,serif" font-size="14.00" fill="#000000">(None, 64, 64, 128)</text>
</g>
<!-- 139815684157280&#45;&gt;139815683379552 -->
<g id="edge29" class="edge">
<title>139815684157280&#45;&gt;139815683379552</title>
<path fill="none" stroke="#000000" d="M223,-332.3799C223,-324.1745 223,-314.7679 223,-305.8786"/>
<polygon fill="#000000" stroke="#000000" points="226.5001,-305.784 223,-295.784 219.5001,-305.784 226.5001,-305.784"/>
</g>
<!-- 139815683073472 -->
<g id="node31" class="node">
<title>139815683073472</title>
<polygon fill="none" stroke="#000000" points="75,-166.5 75,-212.5 371,-212.5 371,-166.5 75,-166.5"/>
<text text-anchor="middle" x="133" y="-185.8" font-family="Times,serif" font-size="14.00" fill="#000000">conv8_3: Conv2D</text>
<polyline fill="none" stroke="#000000" points="191,-166.5 191,-212.5 "/>
<text text-anchor="middle" x="218.5" y="-197.3" font-family="Times,serif" font-size="14.00" fill="#000000">input:</text>
<polyline fill="none" stroke="#000000" points="191,-189.5 246,-189.5 "/>
<text text-anchor="middle" x="218.5" y="-174.3" font-family="Times,serif" font-size="14.00" fill="#000000">output:</text>
<polyline fill="none" stroke="#000000" points="246,-166.5 246,-212.5 "/>
<text text-anchor="middle" x="308.5" y="-197.3" font-family="Times,serif" font-size="14.00" fill="#000000">(None, 64, 64, 128)</text>
<polyline fill="none" stroke="#000000" points="246,-189.5 371,-189.5 "/>
<text text-anchor="middle" x="308.5" y="-174.3" font-family="Times,serif" font-size="14.00" fill="#000000">(None, 64, 64, 128)</text>
</g>
<!-- 139815683379552&#45;&gt;139815683073472 -->
<g id="edge30" class="edge">
<title>139815683379552&#45;&gt;139815683073472</title>
<path fill="none" stroke="#000000" d="M223,-249.3799C223,-241.1745 223,-231.7679 223,-222.8786"/>
<polygon fill="#000000" stroke="#000000" points="226.5001,-222.784 223,-212.784 219.5001,-222.784 226.5001,-222.784"/>
</g>
<!-- 139815683327032 -->
<g id="node32" class="node">
<title>139815683327032</title>
<polygon fill="none" stroke="#000000" points="3,-83.5 3,-129.5 443,-129.5 443,-83.5 3,-83.5"/>
<text text-anchor="middle" x="133" y="-102.8" font-family="Times,serif" font-size="14.00" fill="#000000">batch_normalization_8: BatchNormalization</text>
<polyline fill="none" stroke="#000000" points="263,-83.5 263,-129.5 "/>
<text text-anchor="middle" x="290.5" y="-114.3" font-family="Times,serif" font-size="14.00" fill="#000000">input:</text>
<polyline fill="none" stroke="#000000" points="263,-106.5 318,-106.5 "/>
<text text-anchor="middle" x="290.5" y="-91.3" font-family="Times,serif" font-size="14.00" fill="#000000">output:</text>
<polyline fill="none" stroke="#000000" points="318,-83.5 318,-129.5 "/>
<text text-anchor="middle" x="380.5" y="-114.3" font-family="Times,serif" font-size="14.00" fill="#000000">(None, 64, 64, 128)</text>
<polyline fill="none" stroke="#000000" points="318,-106.5 443,-106.5 "/>
<text text-anchor="middle" x="380.5" y="-91.3" font-family="Times,serif" font-size="14.00" fill="#000000">(None, 64, 64, 128)</text>
</g>
<!-- 139815683073472&#45;&gt;139815683327032 -->
<g id="edge31" class="edge">
<title>139815683073472&#45;&gt;139815683327032</title>
<path fill="none" stroke="#000000" d="M223,-166.3799C223,-158.1745 223,-148.7679 223,-139.8786"/>
<polygon fill="#000000" stroke="#000000" points="226.5001,-139.784 223,-129.784 219.5001,-139.784 226.5001,-139.784"/>
</g>
<!-- 139815683327144 -->
<g id="node33" class="node">
<title>139815683327144</title>
<polygon fill="none" stroke="#000000" points="86,-.5 86,-46.5 360,-46.5 360,-.5 86,-.5"/>
<text text-anchor="middle" x="133" y="-19.8" font-family="Times,serif" font-size="14.00" fill="#000000">pred: Conv2D</text>
<polyline fill="none" stroke="#000000" points="180,-.5 180,-46.5 "/>
<text text-anchor="middle" x="207.5" y="-31.3" font-family="Times,serif" font-size="14.00" fill="#000000">input:</text>
<polyline fill="none" stroke="#000000" points="180,-23.5 235,-23.5 "/>
<text text-anchor="middle" x="207.5" y="-8.3" font-family="Times,serif" font-size="14.00" fill="#000000">output:</text>
<polyline fill="none" stroke="#000000" points="235,-.5 235,-46.5 "/>
<text text-anchor="middle" x="297.5" y="-31.3" font-family="Times,serif" font-size="14.00" fill="#000000">(None, 64, 64, 128)</text>
<polyline fill="none" stroke="#000000" points="235,-23.5 360,-23.5 "/>
<text text-anchor="middle" x="297.5" y="-8.3" font-family="Times,serif" font-size="14.00" fill="#000000">(None, 64, 64, 313)</text>
</g>
<!-- 139815683327032&#45;&gt;139815683327144 -->
<g id="edge32" class="edge">
<title>139815683327032&#45;&gt;139815683327144</title>
<path fill="none" stroke="#000000" d="M223,-83.3799C223,-75.1745 223,-65.7679 223,-56.8786"/>
<polygon fill="#000000" stroke="#000000" points="226.5001,-56.784 223,-46.784 219.5001,-56.784 226.5001,-56.784"/>
</g>
</g>
</svg>
